{
  "accessors": [
    {
      "bufferView": 2,
      "componentType": 5126,
      "count": 4643,
      "max": [
        3.1855239868164062,
        3.0804200172424316,
        14.246779441833496
      ],
      "min": [
        -3.1855239868164062,
        -3.0903270244598389,
        4.8462471961975098
      ],
      "type": "VEC3"
    },
    {
      "bufferView": 2,
      "byteOffset": 55716,
      "componentType": 5126,
      "count": 4643,
      "max": [
        0.99999266862869263,
        0.99999326467514038,
        0.99999946355819702
      ],
      "min": [
        -0.99999266862869263,
        -0.99997186660766602,
        -1
      ],
      "type": "VEC3"
    },
    {
      "bufferView": 3,
      "componentType": 5126,
      "count": 4643,
      "max": [
        0.99997997283935547,
        0.99999386072158813,
        0.9221726655960083,
        1
      ],
      "min": [
        -0.99950414896011353,
        -0.99983102083206177,
        -0.99996262788772583,
        -1
      ],
      "type": "VEC4"
    },
    {
      "bufferView": 1,
      "componentType": 5126,
      "count": 4643,
      "max": [
        1,
        0.93380999565124512
      ],
      "min": [
        0,
        -0
      ],
      "type": "VEC2"
    },
    {
      "bufferView": 0,
      "componentType": 5125,
      "count": 26868,
      "max": [
        4642
      ],
      "min": [
        0
      ],
      "type": "SCALAR"
    },
    {
      "bufferView": 2,
      "byteOffset": 111432,
      "componentType": 5126,
      "count": 3872,
      "max": [
        5.8006138801574707,
        2.3706181049346924,
        10.426068305969238
      ],
      "min": [
        -4.731299877166748,
        -4.618596076965332,
        -0.25022700428962708
      ],
      "type": "VEC3"
    },
    {
      "bufferView": 2,
      "byteOffset": 157896,
      "componentType": 5126,
      "count": 3872,
      "max": [
        0.99903923273086548,
        0.99984163045883179,
        0.99993276596069336
      ],
      "min": [
        -0.99890309572219849,
        -0.99916845560073853,
        -1
      ],
      "type": "VEC3"
    },
    {
      "bufferView": 3,
      "byteOffset": 74288,
      "componentType": 5126,
      "count": 3872,
      "max": [
        0.99908685684204102,
        0.99995410442352295,
        0.99995285272598267,
        1
      ],
      "min": [
        -0.99948388338088989,
        -0.99984180927276611,
        -0.99994683265686035,
        -1
      ],
      "type": "VEC4"
    },
    {
      "bufferView": 1,
      "byteOffset": 37144,
      "componentType": 5126,
      "count": 3872,
      "max": [
        0.99310499429702759,
        0.96622300148010254
      ],
      "min": [
        0.0059250001795589924,
        0.016468999907374382
      ],
      "type": "VEC2"
    },
    {
      "bufferView": 0,
      "byteOffset": 107472,
      "componentType": 5125,
      "count": 20952,
      "max": [
        3871
      ],
      "min": [
        0
      ],
      "type": "SCALAR"
    },
    {
      "bufferView": 2,
      "byteOffset": 204360,
      "componentType": 5126,
      "count": 5254,
      "max": [
        6.2476611137390137,
        -2.6961228847503662,
        11.441791534423828
      ],
      "min": [
        -5.040748119354248,
        -6.140592098236084,
        7.335665225982666
      ],
      "type": "VEC3"
    },
    {
      "bufferView": 2,
      "byteOffset": 267408,
      "componentType": 5126,
      "count": 5254,
      "max": [
        0.99994188547134399,
        0.99997413158416748,
        0.99987226724624634
      ],
      "min": [
        -0.99995535612106323,
        -0.99992513656616211,
        -0.99906438589096069
      ],
      "type": "VEC3"
    },
    {
      "bufferView": 3,
      "byteOffset": 136240,
      "componentType": 5126,
      "count": 5254,
      "max": [
        0.99987506866455078,
        0.99999874830245972,
        0.99981635808944702,
        1
      ],
      "min": [
        -0.99733269214630127,
        -0.99950802326202393,
        -0.99987882375717163,
        -1
      ],
      "type": "VEC4"
    },
    {
      "bufferView": 0,
      "byteOffset": 191280,
      "componentType": 5125,
      "count": 29088,
      "max": [
        5253
      ],
      "min": [
        0
      ],
      "type": "SCALAR"
    },
    {
      "bufferView": 2,
      "byteOffset": 330456,
      "componentType": 5126,
      "count": 286,
      "max": [
        -2.7160398960113525,
        -5.2089362144470215,
        11.169784545898438
      ],
      "min": [
        -5.6108207702636719,
        -5.6269779205322266,
        9.9539279937744141
      ],
      "type": "VEC3"
    },
    {
      "bufferView": 2,
      "byteOffset": 333888,
      "componentType": 5126,
      "count": 286,
      "max": [
        0.99999165534973145,
        0.99999099969863892,
        0.99741834402084351
      ],
      "min": [
        -0.99999946355819702,
        -0.99997913837432861,
        -0.9966168999671936
      ],
      "type": "VEC3"
    },
    {
      "bufferView": 3,
      "byteOffset": 220304,
      "componentType": 5126,
      "count": 286,
      "max": [
        0.99942666292190552,
        0.91498774290084839,
        0.99276894330978394,
        1
      ],
      "min": [
        -0.99939143657684326,
        -0.81848275661468506,
        -0.99757617712020874,
        -1
      ],
      "type": "VEC4"
    },
    {
      "bufferView": 1,
      "byteOffset": 68120,
      "componentType": 5126,
      "count": 286,
      "max": [
        0.73283302783966064,
        1
      ],
      "min": [
        -0,
        0
      ],
      "type": "VEC2"
    },
    {
      "bufferView": 0,
      "byteOffset": 307632,
      "componentType": 5125,
      "count": 1440,
      "max": [
        285
      ],
      "min": [
        0
      ],
      "type": "SCALAR"
    },
    {
      "bufferView": 2,
      "byteOffset": 337320,
      "componentType": 5126,
      "count": 916,
      "max": [
        1.4219050407409668,
        -1.6625180244445801,
        12.724208831787109
      ],
      "min": [
        -1.4156539440155029,
        -2.5141420364379883,
        11.266852378845215
      ],
      "type": "VEC3"
    },
    {
      "bufferView": 2,
      "byteOffset": 348312,
      "componentType": 5126,
      "count": 916,
      "max": [
        0.98693466186523438,
        0.99840736389160156,
        0.99747812747955322
      ],
      "min": [
        -0.98693501949310303,
        -0.99840736389160156,
        -0.99747788906097412
      ],
      "type": "VEC3"
    },
    {
      "bufferView": 3,
      "byteOffset": 224880,
      "componentType": 5126,
      "count": 916,
      "max": [
        0.99990612268447876,
        0.99916577339172363,
        0.97518956661224365,
        1
      ],
      "min": [
        -0.99947363138198853,
        -0.9965323805809021,
        -0.99943983554840088,
        1
      ],
      "type": "VEC4"
    },
    {
      "bufferView": 1,
      "byteOffset": 70408,
      "componentType": 5126,
      "count": 916,
      "max": [
        0.90033000707626343,
        0.96635299921035767
      ],
      "min": [
        0.013504000380635262,
        0.41115999221801758
      ],
      "type": "VEC2"
    },
    {
      "bufferView": 0,
      "byteOffset": 313392,
      "componentType": 5125,
      "count": 4560,
      "max": [
        915
      ],
      "min": [
        0
      ],
      "type": "SCALAR"
    }
  ],
  "asset": {
    "extras": {
      "author": "4Den (https://sketchfab.com/4Den)",
      "license": "CC-BY-4.0 (http://creativecommons.org/licenses/by/4.0/)",
      "source": "https://sketchfab.com/models/f94c8721f15f461cbfca6d131a680d99",
      "title": "Yellow M&M's"
    },
    "generator": "Sketchfab-3.23.4",
    "version": "2.0"
  },
  "bufferViews": [
    {
      "buffer": 0,
      "byteLength": 331632,
      "byteOffset": 0,
      "name": "floatBufferViews",
      "target": 34963
    },
    {
      "buffer": 0,
      "byteLength": 77736,
      "byteOffset": 331632,
      "byteStride": 8,
      "name": "floatBufferViews",
      "target": 34962
    },
    {
      "buffer": 0,
      "byteLength": 359304,
      "byteOffset": 409368,
      "byteStride": 12,
      "name": "floatBufferViews",
      "target": 34962
    },
    {
      "buffer": 0,
      "byteLength": 239536,
      "byteOffset": 768672,
      "byteStride": 16,
      "name": "floatBufferViews",
      "target": 34962
    }
  ],
  "buffers": [
    {
      "byteLength": 1008208,
      "uri": "scene.bin"
    }
  ],
  "extensionsRequired": [
    "KHR_materials_pbrSpecularGlossiness"
  ],
  "extensionsUsed": [
    "KHR_materials_pbrSpecularGlossiness"
  ],
  "images": [
    {
      "uri": "textures/blinn1SG_diffuse.png"
    },
    {
      "uri": "textures/aiStandardSurface3SG_diffuse.png"
    },
    {
      "uri": "textures/aiStandardSurface3SG_normal.png"
    },
    {
      "uri": "textures/aiStandardSurface3SG_specularGlossiness.png"
    },
    {
      "uri": "textures/aiStandardSurface1SG_diffuse.png"
    },
    {
      "uri": "textures/aiStandardSurface1SG_normal.png"
    },
    {
      "uri": "textures/aiStandardSurface1SG_specularGlossiness.png"
    },
    {
      "uri": "textures/aiStandardSurface2SG_diffuse.png"
    },
    {
      "uri": "textures/aiStandardSurface2SG_specularGlossiness.png"
    }
  ],
  "materials": [
    {
      "doubleSided": true,
      "extensions": {
        "KHR_materials_pbrSpecularGlossiness": {
          "diffuseFactor": [
            1,
            1,
            1,
            1
          ],
          "diffuseTexture": {
            "index": 4,
            "texCoord": 0
          },
          "glossinessFactor": 1,
          "specularFactor": [
            0,
            0,
            0
          ],
          "specularGlossinessTexture": {
            "index": 6,
            "texCoord": 0
          }
        }
      },
      "name": "aiStandardSurface1SG",
      "normalTexture": {
        "index": 5,
        "scale": 1,
        "texCoord": 0
      }
    },
    {
      "doubleSided": true,
      "extensions": {
        "KHR_materials_pbrSpecularGlossiness": {
          "diffuseFactor": [
            1,
            1,
            1,
            1
          ],
          "diffuseTexture": {
            "index": 7,
            "texCoord": 0
          },
          "glossinessFactor": 1,
          "specularFactor": [
            0.0269392481,
            0.0269392481,
            0.0269392481
          ],
          "specularGlossinessTexture": {
            "index": 8,
            "texCoord": 0
          }
        }
      },
      "name": "aiStandardSurface2SG"
    },
    {
      "doubleSided": true,
      "extensions": {
        "KHR_materials_pbrSpecularGlossiness": {
          "diffuseFactor": [
            1,
            1,
            1,
            1
          ],
          "diffuseTexture": {
            "index": 1,
            "texCoord": 0
          },
          "glossinessFactor": 1,
          "specularFactor": [
            0,
            0,
            0
          ],
          "specularGlossinessTexture": {
            "index": 3,
            "texCoord": 0
          }
        }
      },
      "name": "aiStandardSurface3SG",
      "normalTexture": {
        "index": 2,
        "scale": 1,
        "texCoord": 0
      }
    },
    {
      "doubleSided": true,
      "emissiveFactor": [
        0,
        0,
        0
      ],
      "extensions": {
        "KHR_materials_pbrSpecularGlossiness": {
          "diffuseFactor": [
            0.90228009860000002,
            0.8314880134,
            0.8314880134,
            1
          ],
          "glossinessFactor": 0.40702301600000002,
          "specularFactor": [
            0.033228556300000003,
            0.033228556300000003,
            0.033228556300000003
          ]
        }
      },
      "name": "aiStandardSurface4SG"
    },
    {
      "doubleSided": true,
      "emissiveFactor": [
        0,
        0,
        0
      ],
      "extensions": {
        "KHR_materials_pbrSpecularGlossiness": {
          "diffuseFactor": [
            1,
            1,
            1,
            1
          ],
          "diffuseTexture": {
            "index": 0,
            "texCoord": 0
          },
          "glossinessFactor": 1,
          "specularFactor": [
            0.0269392481,
            0.0269392481,
            0.0269392481
          ]
        }
      },
      "name": "blinn1SG"
    }
  ],
  "meshes": [
    {
      "primitives": [
        {
          "attributes": {
            "NORMAL": 1,
            "POSITION": 0,
            "TANGENT": 2,
            "TEXCOORD_0": 3
          },
          "indices": 4,
          "material": 0,
          "mode": 4
        }
      ]
    },
    {
      "primitives": [
        {
          "attributes": {
            "NORMAL": 6,
            "POSITION": 5,
            "TANGENT": 7,
            "TEXCOORD_0": 8
          },
          "indices": 9,
          "material": 2,
          "mode": 4
        }
      ]
    },
    {
      "primitives": [
        {
          "attributes": {
            "NORMAL": 11,
            "POSITION": 10,
            "TANGENT": 12
          },
          "indices": 13,
          "material": 3,
          "mode": 4
        }
      ]
    },
    {
      "primitives": [
        {
          "attributes": {
            "NORMAL": 15,
            "POSITION": 14,
            "TANGENT": 16,
            "TEXCOORD_0": 17
          },
          "indices": 18,
          "material": 4,
          "mode": 4
        }
      ]
    },
    {
      "primitives": [
        {
          "attributes": {
            "NORMAL": 20,
            "POSITION": 19,
            "TANGENT": 21,
            "TEXCOORD_0": 22
          },
          "indices": 23,
          "material": 1,
          "mode": 4
        }
      ]
    }
  ],
  "nodes": [
    {
      "children": [
        1
      ],
      "name": "RootNode (gltf orientation matrix)",
      "rotation": [
        -0.70710678118654746,
        -0,
        -0,
        0.70710678118654757
      ]
    },
    {
      "children": [
        2
      ],
      "name": "RootNode (model correction matrix)"
    },
    {
      "children": [
        3,
        4,
        5,
        6,
        7
      ],
      "name": "M&M.obj.cleaner.materialmerger.gles"
    },
    {
      "mesh": 0,
      "name": ""
    },
    {
      "mesh": 1,
      "name": ""
    },
    {
      "mesh": 2,
      "name": ""
    },
    {
      "mesh": 3,
      "name": ""
    },
    {
      "mesh": 4,
      "name": ""
    }
  ],
  "samplers": [
    {
      "magFilter": 9729,
      "minFilter": 9987,
      "wrapS": 10497,
      "wrapT": 10497
    }
  ],
  "scene": 0,
  "scenes": [
    {
      "name": "OSG_Scene",
      "nodes": [
        0
      ]
    }
  ],
  "textures": [
    {
      "sampler": 0,
      "source": 0
    },
    {
      "sampler": 0,
      "source": 1
    },
    {
      "sampler": 0,
      "source": 2
    },
    {
      "sampler": 0,
      "source": 3
    },
    {
      "sampler": 0,
      "source": 4
    },
    {
      "sampler": 0,
      "source": 5
    },
    {
      "sampler": 0,
      "source": 6
    },
    {
      "sampler": 0,
      "source": 7
    },
    {
      "sampler": 0,
      "source": 8
    }
  ]
}

